<?xml version="1.0" standalone="no"?>
<!DOCTYPE svg PUBLIC "-//W3C//DTD SVG 20010904//EN"
 "http://www.w3.org/TR/2001/REC-SVG-20010904/DTD/svg10.dtd">
<svg version="1.0" xmlns="http://www.w3.org/2000/svg"
 width="1024.000000pt" height="1024.000000pt" viewBox="0 0 1024.000000 1024.000000"
 preserveAspectRatio="xMidYMid meet">

<g transform="translate(0.000000,1024.000000) scale(0.100000,-0.100000)"
fill="#667eea" stroke="none">
<path d="M4925 9811 c-127 -59 -140 -189 -30 -297 l45 -45 0 -167 0 -168 71
-69 c39 -39 83 -88 97 -110 l27 -40 5 -345 5 -345 55 0 55 0 2 385 3 385 -96
85 c-53 46 -100 95 -105 108 -5 13 -9 88 -9 167 l0 143 34 22 c52 31 76 77 76
141 0 68 -31 118 -93 148 -53 26 -90 26 -142 2z m100 -101 c23 -9 26 -15 23
-46 -4 -49 -25 -61 -77 -46 -72 22 -76 71 -7 91 17 5 32 10 33 10 1 1 14 -3
28 -9z"/>
<path d="M5674 9601 c-47 -28 -64 -59 -64 -112 0 -52 33 -103 77 -120 l23 -9
0 -346 0 -346 -49 -62 c-27 -33 -79 -90 -115 -126 l-66 -64 0 -97 c0 -77 3
-98 15 -103 13 -4 15 -34 15 -182 l0 -176 41 33 40 32 -1 206 c-1 113 -1 212
-1 219 1 7 34 48 74 90 40 42 85 94 101 115 16 20 35 37 42 37 12 0 14 64 14
385 l0 384 30 48 c39 61 40 110 4 153 -52 61 -122 77 -180 41z"/>
<path d="M6974 9522 c-75 -48 -97 -130 -53 -201 l20 -34 -30 -31 -31 -32 0
-209 0 -210 -160 -145 c-89 -80 -183 -165 -210 -190 -75 -67 -82 -104 -78
-406 l3 -241 -30 -39 c-16 -21 -78 -86 -137 -144 -59 -58 -108 -110 -108 -116
0 -13 78 -67 90 -62 11 4 268 278 287 305 13 19 15 68 14 309 l-2 286 44 41
c182 172 280 262 300 276 13 9 40 30 60 46 l37 30 0 217 0 217 26 20 c15 12
32 21 39 21 21 0 96 55 116 86 76 115 -80 279 -197 206z"/>
<path d="M3474 9420 c-59 -30 -76 -53 -82 -109 -5 -58 20 -110 64 -129 l26
-12 -2 -168 c-1 -92 -2 -180 -1 -196 1 -23 31 -58 148 -177 l146 -149 -2 -232
c-2 -180 1 -237 11 -249 7 -8 45 -42 83 -74 39 -33 116 -103 171 -157 l101
-98 39 16 c22 9 50 21 63 26 l24 9 -21 15 -22 15 0 630 0 631 35 41 c58 68 59
135 1 193 -42 42 -92 52 -151 30 -47 -18 -65 -39 -84 -99 -12 -35 -11 -43 11
-84 12 -25 32 -51 43 -57 11 -6 23 -15 27 -21 4 -5 7 -268 8 -583 l0 -574 -43
32 c-24 17 -72 60 -108 96 l-64 65 -6 241 -6 241 -139 136 -139 135 -3 177 -3
177 30 43 c28 41 36 73 33 125 -1 12 -19 40 -39 63 -48 53 -90 61 -149 31z"/>
<path d="M2706 9130 c-34 -11 -73 -45 -92 -82 -32 -61 -6 -138 69 -204 l45
-39 4 -135 c3 -98 8 -143 20 -165 30 -56 1007 -1025 1034 -1025 8 0 33 12 55
27 l41 27 -34 31 c-19 16 -69 59 -110 95 -41 36 -94 89 -119 118 -47 57 -413
412 -440 428 -15 8 -128 126 -276 288 l-63 68 0 137 0 137 29 17 c34 20 61 72
61 118 0 47 -36 115 -74 139 -39 24 -109 33 -150 20z m98 -116 c9 -8 16 -24
16 -34 0 -10 3 -25 6 -33 7 -18 -21 -47 -47 -47 -26 0 -77 50 -81 80 -5 42 73
67 106 34z"/>
<path d="M6110 9062 c-37 -36 -40 -43 -40 -91 0 -56 15 -95 49 -125 20 -18 21
-29 21 -211 l0 -192 -67 -75 c-38 -42 -108 -111 -157 -155 l-89 -78 5 -197 c5
-184 4 -198 -13 -214 -31 -28 -31 -27 78 -71 6 -3 20 13 31 34 17 34 19 55 14
211 -3 121 -1 172 6 172 6 0 27 25 47 55 19 31 85 106 145 168 l111 112 0 209
0 209 44 50 c25 27 46 59 47 71 6 94 -51 156 -146 156 -39 0 -51 -6 -86 -38z"/>
<path d="M4585 8905 c-96 -49 -107 -165 -21 -230 l36 -27 0 -128 0 -127 68
-64 c37 -35 69 -73 72 -84 5 -17 16 -20 68 -23 l62 -3 0 41 c0 22 -4 40 -9 40
-4 0 -41 32 -82 70 l-73 70 -4 98 -4 99 36 21 c43 26 76 76 76 118 0 18 -12
47 -29 71 -48 67 -130 91 -196 58z"/>
<path d="M7827 8893 c-14 -16 -38 -54 -52 -86 l-26 -57 -188 7 -187 6 -118
-107 c-131 -118 -448 -443 -467 -478 -9 -15 -12 -61 -10 -138 l2 -115 41 -65
c44 -70 124 -176 170 -226 l29 -31 -53 -48 c-29 -27 -128 -122 -220 -212 -92
-90 -173 -163 -182 -163 -10 0 1 -26 37 -85 l52 -84 365 -1 366 0 194 196 195
195 52 -15 c62 -17 109 -8 161 30 84 64 81 183 -7 257 -39 32 -125 46 -167 26
-44 -22 -87 -94 -92 -155 -4 -50 -8 -56 -97 -151 -51 -55 -138 -139 -193 -187
l-100 -87 -296 2 c-162 1 -309 4 -327 8 l-33 7 31 19 c46 30 548 522 740 727
l168 179 389 -3 389 -3 106 112 106 111 58 4 c61 5 95 27 123 80 31 60 12 114
-57 160 -52 35 -101 34 -148 -4 -45 -36 -61 -70 -61 -131 l0 -55 -97 -92 -98
-92 -180 6 c-324 13 -541 15 -555 6 -7 -5 -97 -91 -199 -192 -210 -207 -282
-269 -296 -257 -6 5 -24 20 -41 33 -17 14 -60 67 -96 119 l-65 94 -6 89 c-5
75 -4 93 11 115 42 63 116 139 284 290 98 90 184 171 189 181 9 16 28 18 218
18 208 0 208 0 247 -26 57 -39 121 -38 171 3 58 46 83 89 83 142 0 91 -72 151
-181 151 -47 0 -59 -4 -82 -27z m146 -98 c15 -14 27 -32 27 -40 0 -37 -90 -83
-128 -65 -21 9 -23 15 -17 53 4 23 11 50 17 60 14 26 68 22 101 -8z m-66
-1181 c31 -8 56 -50 49 -80 -8 -30 -60 -63 -89 -57 -46 11 -63 76 -31 121 15
23 32 26 71 16z"/>
<path d="M1600 8771 c-52 -27 -80 -74 -80 -134 0 -44 4 -53 39 -88 35 -35 44
-39 90 -39 56 0 108 17 130 43 12 15 33 16 179 12 l165 -5 43 -35 c24 -20 67
-64 96 -98 29 -34 143 -152 253 -262 201 -200 367 -378 418 -447 26 -36 27
-41 27 -170 l0 -134 194 -192 c106 -106 198 -192 204 -192 6 0 25 21 42 46
l32 45 -58 62 c-32 34 -79 80 -106 102 -26 22 -79 67 -117 100 l-71 60 0 148
0 148 -72 77 c-39 42 -205 214 -368 382 -163 168 -320 331 -350 364 -30 32
-72 72 -92 88 l-38 29 -170 3 -170 2 -43 41 c-71 68 -113 79 -177 44z"/>
<path d="M4685 7883 l0 -218 -25 -3 c-74 -8 -199 -38 -310 -74 -258 -83 -477
-209 -646 -371 -199 -189 -307 -380 -369 -651 -21 -95 -22 -385 0 -489 80
-388 318 -683 710 -877 160 -80 299 -133 483 -185 70 -20 135 -38 145 -41 16
-5 17 -42 17 -630 l-1 -625 -22 7 c-42 13 -156 72 -219 114 -156 105 -363 356
-474 576 -24 49 -49 97 -54 106 -8 15 -48 4 -382 -108 -205 -69 -374 -127
-376 -129 -2 -2 3 -46 12 -97 75 -439 409 -847 873 -1068 120 -57 329 -125
474 -155 70 -14 136 -25 148 -25 l22 0 -3 -260 -3 -260 338 0 337 0 0 259 0
259 58 6 c408 47 836 248 1071 503 255 276 371 638 332 1033 -29 292 -139 527
-342 729 -192 192 -394 291 -946 462 l-173 54 0 587 0 588 28 -11 c133 -50
267 -145 353 -252 59 -73 139 -228 174 -337 15 -47 30 -88 34 -92 6 -7 716
212 743 228 15 9 0 123 -29 224 -70 245 -264 512 -499 688 -195 147 -458 259
-696 298 l-108 17 0 219 0 218 -337 0 -338 0 0 -217z m5 -1453 l0 -490 -27 6
c-55 13 -179 66 -245 105 -130 77 -198 191 -206 345 -11 239 118 406 393 505
94 34 85 84 85 -471z m850 -1707 c240 -79 365 -196 415 -388 20 -78 19 -106
-6 -195 -43 -157 -124 -255 -274 -332 -90 -46 -259 -108 -296 -108 -19 0 -19
12 -19 539 l0 540 53 -15 c28 -9 86 -27 127 -41z"/>
<path d="M1237 8040 c-63 -12 -117 -77 -117 -142 0 -44 40 -101 85 -122 53
-26 107 -14 160 35 l42 39 274 0 274 0 215 -209 c118 -115 219 -206 224 -203
5 3 6 1 3 -5 -4 -6 6 -21 21 -34 20 -18 23 -19 12 -4 -8 11 35 -28 95 -87 61
-59 134 -126 163 -149 29 -24 88 -84 132 -135 43 -50 112 -120 152 -155 40
-35 112 -104 159 -153 l86 -89 12 63 13 63 -44 45 c-24 24 -55 52 -70 61 -15
9 -272 260 -571 558 -490 486 -549 541 -583 546 -22 4 -162 7 -313 7 l-273 0
-21 26 c-16 21 -78 58 -89 53 -2 -1 -20 -5 -41 -9z"/>
<path d="M9224 7590 c-11 -4 -33 -22 -47 -40 l-27 -31 -267 6 c-147 3 -271 9
-275 11 -18 11 -50 -10 -80 -54 -18 -25 -168 -182 -333 -347 -166 -165 -314
-317 -330 -339 l-29 -38 -140 7 c-78 5 -316 7 -531 6 -214 -1 -393 -1 -396 -1
-3 0 0 -21 6 -47 l12 -48 566 -3 567 -2 75 76 c42 42 73 79 70 82 -3 3 -15 -3
-28 -14 -38 -34 -57 -47 -57 -39 0 13 207 220 360 360 80 73 173 167 205 209
l60 76 272 0 271 0 20 -32 c54 -87 173 -91 232 -8 32 46 35 88 8 139 -35 68
-116 99 -184 71z"/>
<path d="M2125 7265 c-5 -2 -22 -6 -37 -9 -28 -6 -108 -75 -108 -93 0 -14
-153 -28 -228 -20 -42 5 -62 12 -86 35 -42 40 -68 52 -111 52 -105 0 -169 -98
-127 -194 42 -94 127 -110 225 -42 l52 36 123 0 c131 0 140 -2 209 -55 23 -18
62 -38 87 -45 41 -11 50 -10 88 8 l42 21 43 -35 c24 -19 43 -40 43 -46 0 -6
115 -125 256 -264 l256 -254 169 0 169 0 0 55 0 55 -149 0 -150 0 -289 288
c-288 286 -289 287 -296 337 -9 70 -36 116 -82 141 -40 22 -82 34 -99 29z m59
-126 c30 -24 34 -63 10 -97 -8 -12 -24 -22 -34 -22 -21 0 -90 79 -90 103 0 38
72 49 114 16z"/>
<path d="M9069 6997 c-19 -12 -43 -41 -54 -64 -15 -31 -28 -43 -50 -47 -16 -4
-129 -4 -250 0 l-220 6 -156 -168 c-85 -93 -178 -195 -205 -226 l-49 -57 -288
1 -287 0 -35 -26 c-19 -14 -53 -49 -76 -76 l-42 -50 -325 0 -326 0 -135 -41
c-75 -23 -140 -44 -144 -48 -9 -8 462 -21 778 -21 l200 0 76 80 76 81 283 -1
283 -2 43 36 c24 20 87 89 141 154 53 64 128 150 167 190 l69 72 222 0 221 0
30 -31 c36 -38 76 -60 129 -70 77 -15 155 47 176 139 15 66 -22 147 -81 177
-45 23 -130 19 -171 -8z m107 -67 c56 -22 72 -85 32 -127 -26 -28 -33 -28 -61
-3 -12 11 -30 19 -42 18 -17 -3 -20 2 -16 32 3 38 17 71 35 82 15 10 20 10 52
-2z"/>
<path d="M768 6742 c-48 -29 -79 -122 -59 -174 5 -14 31 -41 56 -58 40 -28 53
-32 91 -27 42 4 59 13 116 58 26 22 34 22 510 27 l483 4 72 -63 c40 -35 137
-134 216 -219 79 -85 213 -220 298 -300 l154 -145 281 3 281 3 -16 55 -16 54
-249 0 -248 0 -62 56 c-33 30 -108 106 -166 169 -58 62 -194 199 -302 305
l-198 191 -510 -7 -510 -7 -43 46 c-41 45 -46 47 -98 47 -33 0 -65 -7 -81 -18z"/>
<path d="M9414 6326 c-17 -8 -44 -30 -58 -49 l-28 -36 -271 0 -272 0 -108
-113 -108 -112 -77 23 c-146 44 -151 45 -191 18 -20 -14 -65 -53 -101 -87
l-65 -63 -215 2 c-118 2 -552 3 -963 4 l-749 2 -84 -88 c-47 -48 -82 -92 -79
-97 4 -6 25 -20 47 -31 l41 -21 65 71 64 71 976 0 c785 0 978 2 981 12 5 18
38 54 93 100 l48 40 92 -31 c153 -50 158 -50 198 1 19 24 68 78 109 121 l74
77 253 0 c168 0 255 -4 259 -11 4 -6 25 -24 47 -40 96 -69 222 -5 222 112 0
103 -103 167 -200 125z"/>
<path d="M1202 6253 c-47 -23 -75 -67 -80 -128 -4 -47 -1 -55 27 -88 62 -70
143 -73 216 -6 l42 39 229 0 230 0 51 -57 c28 -32 132 -146 232 -253 99 -107
181 -198 181 -201 0 -3 -10 -11 -22 -16 -18 -8 4 -12 97 -17 108 -7 592 -10
897 -7 l118 1 -27 49 -27 49 -66 6 c-36 3 -250 6 -476 6 l-411 0 -44 53 c-42
50 -176 192 -378 401 l-96 98 -243 -7 -244 -7 -41 40 c-64 62 -107 74 -165 45z"/>
<path d="M1385 5744 c-71 -37 -105 -89 -105 -162 0 -63 30 -109 90 -139 87
-45 155 -24 206 63 l26 44 136 -6 c206 -8 213 -9 254 -52 48 -50 118 -160 118
-186 0 -12 -20 -47 -45 -78 l-45 -58 -592 0 -592 0 -42 45 c-40 44 -42 45
-102 45 -54 0 -65 -4 -97 -31 -70 -61 -70 -157 0 -218 30 -26 44 -31 86 -31
63 0 108 20 134 61 l20 30 612 -2 c699 -2 618 -14 699 97 26 35 52 64 58 64 6
1 169 1 361 0 l350 0 102 -104 c100 -102 153 -172 153 -199 0 -7 -11 -24 -24
-36 l-25 -23 -694 3 -695 4 -267 -275 -268 -275 -56 -3 c-55 -3 -59 -1 -98 38
-36 35 -47 40 -88 40 -86 0 -146 -54 -147 -133 -3 -143 166 -202 256 -89 16
21 25 22 93 20 65 -3 76 -1 85 17 15 26 228 249 287 300 25 22 91 86 146 143
l100 103 685 6 685 6 35 29 35 30 521 -2 c462 -1 527 1 563 16 48 19 52 29 12
37 -15 3 -53 17 -84 31 l-56 26 -443 0 -443 0 -28 35 c-15 19 -25 40 -21 47 5
7 3 8 -6 3 -9 -5 -10 -2 -6 13 5 16 -19 47 -119 155 -69 74 -132 138 -141 141
-9 3 -156 6 -327 6 -172 0 -335 3 -364 6 -51 7 -53 8 -93 69 -22 34 -40 67
-40 73 0 6 -24 36 -54 67 -38 40 -66 60 -93 66 -21 5 -118 12 -216 16 l-179 6
-25 39 c-48 72 -122 97 -188 62z m68 -85 c13 -6 31 -24 41 -39 15 -26 15 -33
2 -64 -20 -47 -57 -58 -92 -25 -31 29 -33 90 -4 119 23 23 22 23 53 9z"/>
<path d="M7042 5570 c-10 -3 -47 -36 -83 -74 -35 -39 -81 -85 -102 -104 l-38
-35 -139 2 c-77 1 -140 -1 -139 -6 1 -4 24 -29 53 -55 l51 -46 106 -7 105 -7
80 83 c43 46 96 98 116 117 l36 35 159 -2 c114 -2 164 -6 179 -16 12 -7 70
-60 130 -117 l109 -103 345 6 c389 6 386 6 500 92 l55 42 430 5 430 5 46 -47
c43 -46 47 -48 102 -48 51 0 61 4 96 35 75 68 79 136 11 209 -38 40 -40 41
-105 41 -67 0 -68 0 -105 -42 l-38 -43 -444 0 -443 0 -95 -70 -95 -69 -325 0
-325 0 -95 85 c-52 47 -117 98 -145 112 -48 25 -57 26 -227 26 -97 1 -185 -1
-196 -4z m2538 -134 c0 -3 -4 -8 -10 -11 -5 -3 -10 -1 -10 4 0 6 5 11 10 11 6
0 10 -2 10 -4z"/>
<path d="M6820 4998 c0 -4 10 -28 22 -53 l22 -45 335 0 336 0 24 -35 c12 -19
24 -45 25 -59 1 -24 4 -25 86 -29 47 -2 294 -4 549 -5 l463 -2 49 -44 c89 -80
178 -84 249 -11 31 32 35 42 38 103 3 57 0 72 -20 102 -30 45 -99 80 -157 80
-54 0 -113 -36 -132 -82 -7 -16 -22 -33 -34 -38 -12 -5 -247 -9 -523 -9 l-500
-1 -12 29 c-6 16 -23 45 -36 63 l-25 33 -379 5 c-209 3 -380 2 -380 -2z m2054
-114 c45 -22 62 -58 41 -90 -18 -28 -47 -45 -62 -36 -25 17 -64 95 -59 118 8
29 31 31 80 8z"/>
<path d="M6940 4559 c0 -13 3 -41 7 -63 l6 -39 284 5 284 4 193 -195 c182
-187 637 -651 736 -754 l47 -49 273 2 273 1 32 -31 c36 -35 100 -54 143 -44
77 19 112 61 112 136 0 139 -177 192 -262 78 l-22 -30 -245 0 -246 0 -295 292
-295 293 45 7 c25 3 322 7 661 7 l617 1 40 -40 c37 -38 43 -40 98 -40 71 0
113 22 137 73 32 67 16 127 -47 176 -62 49 -145 39 -195 -25 l-20 -25 -283 -4
c-156 -3 -483 -7 -728 -9 l-445 -5 -135 144 -135 145 -196 0 c-108 0 -251 3
-317 7 l-122 6 0 -24z"/>
<path d="M1985 4419 c-62 -45 -198 -171 -443 -414 -382 -378 -353 -356 -449
-340 -37 7 -47 4 -77 -18 -38 -30 -76 -99 -76 -141 0 -48 47 -122 94 -147 34
-18 51 -21 89 -15 90 14 146 91 133 184 l-6 45 88 81 c48 44 200 191 337 326
138 135 289 278 337 318 l87 72 437 0 c412 0 438 1 468 19 17 11 65 29 106 41
41 13 79 27 85 32 6 5 -171 7 -430 6 -242 -2 -496 1 -565 6 l-125 8 -90 -63z
m-838 -871 c27 -25 29 -54 7 -86 -22 -31 -67 -29 -93 4 -24 31 -26 43 -9 79
15 32 62 34 95 3z"/>
<path d="M6940 4106 c0 -19 -3 -41 -6 -50 -5 -14 6 -16 87 -16 l93 0 216 -215
217 -216 153 2 c84 0 155 -3 159 -8 50 -59 659 -675 715 -723 l75 -65 -6 -62
c-8 -85 -1 -103 58 -151 42 -34 59 -42 92 -42 47 0 114 29 147 65 56 60 28
189 -52 243 -38 25 -42 25 -95 14 l-56 -12 -129 122 c-71 67 -261 257 -421
422 l-292 301 -151 0 -152 0 -169 166 c-94 92 -198 187 -233 213 l-64 46 -93
0 -93 0 0 -34z m1916 -1347 c13 -12 24 -30 24 -40 0 -22 -46 -59 -74 -59 -49
0 -80 62 -60 115 10 24 78 14 110 -16z"/>
<path d="M2698 4042 l-368 -2 -52 -57 c-134 -145 -437 -434 -505 -481 -17 -12
-48 -44 -67 -71 l-36 -49 0 -184 0 -184 -71 -85 c-39 -46 -92 -110 -116 -142
-45 -58 -45 -58 -87 -52 -79 12 -138 -30 -156 -110 -11 -51 5 -98 46 -134 64
-57 160 -38 203 40 14 24 21 52 20 77 -3 45 -9 36 151 229 l115 138 3 185 4
185 77 72 c255 242 450 433 480 470 l34 43 368 0 c203 0 369 1 369 3 -2 10
-38 108 -41 110 -2 1 -169 1 -371 -1z"/>
<path d="M6848 3752 c-16 -33 -28 -64 -28 -70 0 -5 12 -18 28 -28 15 -10 160
-150 323 -311 l296 -293 65 0 65 0 66 -69 c37 -38 67 -66 67 -63 0 15 32 -41
46 -80 10 -30 37 -64 89 -113 l75 -70 -2 -66 c-3 -107 56 -189 136 -189 72 1
152 62 176 135 16 48 8 73 -40 128 -46 51 -94 72 -149 63 -36 -5 -40 -3 -118
77 -55 55 -89 100 -106 137 -17 39 -48 78 -109 138 l-86 82 -60 0 -60 0 -159
158 c-87 86 -207 205 -268 263 -60 59 -135 135 -165 169 l-55 63 -27 -61z
m1255 -1131 c13 -5 30 -23 37 -41 12 -28 11 -33 -10 -55 -30 -32 -39 -31 -78
4 -37 35 -40 53 -12 81 23 23 29 24 63 11z"/>
<path d="M2654 3637 c-54 -51 -133 -120 -174 -154 -41 -34 -108 -94 -148 -135
l-72 -74 -7 -222 -6 -221 -36 -25 c-37 -26 -324 -313 -472 -473 l-86 -92 -59
1 c-70 1 -98 -11 -124 -55 -34 -55 -20 -127 35 -177 21 -20 37 -25 73 -24 87
1 142 51 142 128 0 33 20 57 244 293 134 142 276 289 315 328 l71 69 0 197 0
197 138 134 c75 74 178 172 229 216 l92 82 220 0 c122 0 221 3 221 6 0 3 -12
25 -26 50 l-26 44 -222 0 -223 0 -99 -93z"/>
<path d="M3242 3432 c-38 -43 -98 -114 -133 -158 -36 -45 -107 -122 -159 -170
-77 -73 -203 -212 -269 -297 -12 -15 -14 -58 -12 -221 l2 -202 -73 -62 c-40
-33 -137 -126 -215 -206 l-142 -146 -37 16 c-48 20 -108 13 -139 -16 -16 -15
-26 -42 -35 -95 -11 -67 -11 -77 6 -112 25 -51 103 -103 154 -103 117 0 187
90 155 196 l-15 49 225 218 225 219 0 202 0 203 29 44 c17 24 152 172 300 327
166 174 271 291 271 303 0 31 -27 76 -49 82 -16 4 -36 -12 -89 -71z m-1013
-1566 c13 -14 24 -38 24 -58 2 -29 -1 -33 -27 -36 -56 -7 -122 40 -109 77 18
49 74 57 112 17z"/>
<path d="M6497 3252 l-37 -37 266 -265 c146 -146 295 -303 332 -350 36 -47 71
-88 77 -92 5 -4 81 -8 168 -8 l159 0 246 -243 c136 -133 258 -248 272 -255 14
-7 40 -33 58 -57 28 -36 32 -47 23 -64 -17 -30 -13 -99 6 -132 19 -31 85 -69
121 -69 36 0 87 25 110 55 34 43 38 87 12 140 -25 51 -60 74 -119 78 -36 2
-48 12 -149 122 -110 119 -245 254 -439 439 l-101 96 -156 0 -155 0 -79 98
c-44 53 -153 169 -243 258 -90 89 -199 198 -243 243 -43 44 -81 81 -85 81 -4
0 -24 -17 -44 -38z m1673 -1421 c0 -6 -4 -13 -10 -16 -5 -3 -10 1 -10 9 0 9 5
16 10 16 6 0 10 -4 10 -9z"/>
<path d="M3587 3197 c-8 -12 -127 -139 -265 -281 l-251 -260 -3 -100 c-2 -56
1 -143 6 -195 8 -72 7 -96 -2 -99 -7 -2 -12 -22 -12 -45 0 -38 -7 -50 -73
-123 -39 -44 -101 -109 -135 -144 -99 -98 -95 -88 -100 -288 l-5 -176 -32 -31
c-43 -40 -63 -103 -45 -145 32 -78 88 -116 156 -105 121 18 162 158 72 249
l-38 39 0 151 1 151 153 159 153 159 6 171 c4 94 7 212 7 262 l0 92 233 223
c127 122 245 234 260 249 l28 27 -49 41 -50 42 -15 -23z m-742 -1852 c0 -17
-6 -20 -34 -17 -44 3 -49 9 -25 27 26 20 59 15 59 -10z"/>
<path d="M6209 3030 l-36 -19 -7 -156 c-8 -188 -13 -177 131 -315 54 -51 208
-203 343 -337 l246 -243 -4 -67 c-3 -59 0 -73 20 -103 47 -70 154 -73 215 -6
28 30 33 43 33 83 0 81 -57 143 -132 143 -17 0 -119 94 -381 353 l-357 353 0
105 c0 136 -10 229 -24 229 -6 -1 -27 -9 -47 -20z"/>
<path d="M3995 2883 c-44 -41 -96 -87 -116 -102 -20 -15 -60 -56 -89 -92 -30
-35 -107 -119 -172 -186 l-118 -121 0 -307 0 -307 -41 -46 -41 -47 7 -65 c4
-36 11 -73 17 -83 17 -32 70 -57 122 -57 94 0 154 67 142 159 -5 37 -14 54
-47 85 l-41 39 1 306 2 306 107 105 c166 163 412 430 412 449 0 4 -15 14 -32
23 l-33 15 -80 -74z m-387 -1260 c-2 -9 -9 -18 -17 -21 -8 -3 -11 0 -7 7 4 7
0 11 -13 11 -10 0 -21 -6 -24 -12 -3 -10 -7 -10 -17 -1 -20 18 -2 33 41 33 32
0 40 -3 37 -17z"/>
<path d="M5895 2886 c-40 -13 -40 -13 -48 -77 -5 -35 -6 -163 -3 -284 l6 -220
88 -85 c48 -47 151 -145 229 -218 78 -73 179 -179 224 -235 45 -56 86 -103 90
-105 5 -2 9 -129 9 -281 0 -270 -1 -278 -21 -297 -86 -78 -54 -219 56 -244
143 -32 225 155 104 240 l-28 21 6 207 c3 114 3 251 -2 305 l-7 99 -80 86
c-43 48 -94 106 -111 128 -17 23 -61 65 -97 93 -36 29 -129 114 -207 189
l-142 137 -7 278 c-4 152 -10 277 -13 276 -3 -1 -24 -7 -46 -13z"/>
<path d="M4260 2678 l-165 -169 -2 -687 c-1 -378 -2 -690 -2 -694 -1 -5 -6 -8
-13 -8 -22 0 -80 -53 -94 -86 -18 -43 -18 -117 0 -153 41 -78 176 -116 246
-69 51 34 83 101 75 158 -9 60 -28 93 -70 126 l-35 26 0 673 0 672 101 102
c56 56 121 115 145 132 44 30 66 61 77 110 6 24 4 27 -31 33 -20 3 -44 5 -52
5 -8 -1 -89 -78 -180 -171z m-78 -1660 c24 -20 31 -79 12 -106 -19 -28 -40
-28 -95 2 -38 20 -44 27 -41 52 1 16 12 37 24 47 24 20 77 23 100 5z"/>
<path d="M5535 2831 l-30 -6 -5 -341 c-4 -278 -8 -344 -19 -358 -14 -16 -7
-26 75 -104 50 -48 136 -129 192 -180 l102 -93 0 -164 0 -164 -29 -15 c-121
-63 -116 -219 9 -294 45 -27 62 -32 90 -27 79 14 153 94 152 163 -1 52 -36
118 -77 145 l-34 22 -3 194 -3 193 -175 168 -175 168 -3 318 c-1 176 -5 334
-8 352 -5 33 -8 34 -59 23z m421 -1526 c19 -30 12 -70 -18 -102 -27 -29 -30
-29 -73 8 -25 22 -35 39 -35 59 0 58 94 84 126 35z"/>
<path d="M5170 1719 c0 -552 0 -562 -21 -595 -43 -70 -19 -173 46 -200 42 -17
102 -18 135 -1 34 17 70 74 70 112 0 39 -35 93 -77 120 l-32 20 -1 515 c0 283
-3 524 -6 536 -6 22 -61 54 -94 54 -20 0 -20 -10 -20 -561z"/>
<path d="M4630 2074 l0 -187 58 -54 c31 -30 77 -70 100 -91 l44 -36 -6 -151
c-3 -82 -7 -290 -8 -461 l-3 -311 -36 -40 c-43 -47 -54 -95 -37 -148 16 -48
53 -76 110 -82 84 -10 148 49 148 135 0 36 -6 49 -40 86 l-40 44 6 489 7 489
-34 22 c-37 22 -88 72 -74 72 4 0 -12 17 -36 39 l-44 39 0 148 0 148 -50 18
c-27 10 -53 18 -57 18 -5 0 -8 -84 -8 -186z"/>
<path d="M7414 1430 c-11 -4 -32 -22 -47 -39 l-26 -31 -350 0 -351 0 0 -55 0
-55 351 0 352 0 41 -45 c39 -41 46 -45 90 -45 69 0 111 23 137 77 35 72 11
153 -54 190 -25 14 -112 16 -143 3z"/>
</g>
</svg>
